<svg xmlns="http://www.w3.org/2000/svg" width="2048" height="256" viewBox="0 0 2048 256"><g transform="translate(128 238.0) rotate(0.0) scale(1.0) translate(-128 -238)"><image href="../bunny-master.svg" x="18" y="18" width="220" height="220" preserveAspectRatio="xMidYMax meet"/></g><g transform="translate(384 240.0) rotate(1.3) scale(1.018) translate(-128 -238)"><image href="../bunny-master.svg" x="18" y="18" width="220" height="220" preserveAspectRatio="xMidYMax meet"/></g><g transform="translate(640 238.0) rotate(0.0) scale(1.0) translate(-128 -238)"><image href="../bunny-master.svg" x="18" y="18" width="220" height="220" preserveAspectRatio="xMidYMax meet"/></g><g transform="translate(896 236.0) rotate(-1.3) scale(0.982) translate(-128 -238)"><image href="../bunny-master.svg" x="18" y="18" width="220" height="220" preserveAspectRatio="xMidYMax meet"/></g><g transform="translate(1152 238.0) rotate(-0.0) scale(1.0) translate(-128 -238)"><image href="../bunny-master.svg" x="18" y="18" width="220" height="220" preserveAspectRatio="xMidYMax meet"/></g><g transform="translate(1408 240.0) rotate(1.3) scale(1.018) translate(-128 -238)"><image href="../bunny-master.svg" x="18" y="18" width="220" height="220" preserveAspectRatio="xMidYMax meet"/></g><g transform="translate(1664 238.0) rotate(0.0) scale(1.0) translate(-128 -238)"><image href="../bunny-master.svg" x="18" y="18" width="220" height="220" preserveAspectRatio="xMidYMax meet"/></g><g transform="translate(1920 236.0) rotate(-1.3) scale(0.982) translate(-128 -238)"><image href="../bunny-master.svg" x="18" y="18" width="220" height="220" preserveAspectRatio="xMidYMax meet"/></g></svg>